<svg xmlns="http://www.w3.org/2000/svg" xmlns:xlink="http://www.w3.org/1999/xlink" width="1000" zoomAndPan="magnify" viewBox="0 0 750 749.999995" height="1000" preserveAspectRatio="xMidYMid meet" version="1.2"><defs><clipPath id="996b837cd4"><path d="M 271.347656 0 L 750 0 L 750 226.589844 L 271.347656 226.589844 Z M 271.347656 0 "/></clipPath><clipPath id="c708d59d06"><path d="M 750 15 L 750 211.589844 C 750 219.875 743.285156 226.589844 735 226.589844 L 286.347656 226.589844 C 278.0625 226.589844 271.347656 219.875 271.347656 211.589844 L 271.347656 15 C 271.347656 6.714844 278.0625 0 286.347656 0 L 735 0 C 743.285156 0 750 6.714844 750 15 Z M 750 15 "/></clipPath><clipPath id="6360844610"><path d="M 271.347656 272.421875 L 610 272.421875 L 610 499.011719 L 271.347656 499.011719 Z M 271.347656 272.421875 "/></clipPath><clipPath id="7c5a3f6478"><path d="M 609.527344 287.421875 L 609.527344 484.011719 C 609.527344 492.292969 602.8125 499.011719 594.527344 499.011719 L 286.347656 499.011719 C 278.0625 499.011719 271.347656 492.292969 271.347656 484.011719 L 271.347656 287.421875 C 271.347656 279.136719 278.0625 272.421875 286.347656 272.421875 L 594.527344 272.421875 C 602.8125 272.421875 609.527344 279.136719 609.527344 287.421875 Z M 609.527344 287.421875 "/></clipPath><clipPath id="a98ea42530"><path d="M 0.00390625 0 L 226.59375 0 L 226.59375 749.996094 L 0.00390625 749.996094 Z M 0.00390625 0 "/></clipPath><clipPath id="54b1ead9cb"><path d="M 15.003906 -0.00390625 L 211.59375 -0.00390625 C 219.878906 -0.00390625 226.59375 6.710938 226.59375 14.996094 L 226.59375 734.996094 C 226.59375 743.28125 219.878906 749.996094 211.59375 749.996094 L 15.003906 749.996094 C 6.71875 749.996094 0.00390625 743.28125 0.00390625 734.996094 L 0.00390625 14.996094 C 0.00390625 6.710938 6.71875 -0.00390625 15.003906 -0.00390625 Z M 15.003906 -0.00390625 "/></clipPath></defs><g id="04400e611d"><g clip-rule="nonzero" clip-path="url(#996b837cd4)"><g clip-rule="nonzero" clip-path="url(#c708d59d06)"><path style=" stroke:none;fill-rule:nonzero;fill:#000000;fill-opacity:1;" d="M 271.347656 0 L 750.195312 0 L 750.195312 226.589844 L 271.347656 226.589844 Z M 271.347656 0 "/></g></g><g clip-rule="nonzero" clip-path="url(#6360844610)"><g clip-rule="nonzero" clip-path="url(#7c5a3f6478)"><path style=" stroke:none;fill-rule:nonzero;fill:#000000;fill-opacity:1;" d="M 271.347656 272.421875 L 609.460938 272.421875 L 609.460938 499.011719 L 271.347656 499.011719 Z M 271.347656 272.421875 "/></g></g><g clip-rule="nonzero" clip-path="url(#a98ea42530)"><g clip-rule="nonzero" clip-path="url(#54b1ead9cb)"><path style=" stroke:none;fill-rule:nonzero;fill:#000000;fill-opacity:1;" d="M 0.00390625 749.996094 L 0.00390625 0.304688 L 226.59375 0.304688 L 226.59375 749.996094 Z M 0.00390625 749.996094 "/></g></g></g></svg>