<svg version="1.2" xmlns="http://www.w3.org/2000/svg" viewBox="0 0 374 348" width="374" height="348"><style>.a{fill:#191919}</style><path fill-rule="evenodd" d="m287.3 0c0.9 0 2.5 1.2 3.6 2.8 1 1.5 5.5 8.9 10 16.4 4.4 7.6 7.9 14.3 7.6 14.8-0.3 0.5-1.3 1-2.3 1-0.9 0-3.2 0.9-5 2-1.7 1.1-3.9 3.6-4.7 5.5-1.3 3.1-1.3 3.9 0 7 0.8 2 2.8 4.2 4.5 5 1.6 0.8 4.5 1.5 6.2 1.5 2.4-0.1 4.2-1 6.5-3.5 1.8-1.9 3.6-3.5 4-3.5 0.5 0.1 5.2 7.6 10.5 16.8 5.3 9.2 10.2 17.8 10.9 19.2 0.6 1.4 0.9 3.2 0.6 4-0.3 0.8-7.5 5.5-31.5 19.5l1.9 2.5c1.1 1.4 2.2 4.3 2.6 6.5 0.4 2.8 0 5.2-1.3 7.9-1.1 2.2-3.3 4.8-4.9 5.8-1.6 1-4.8 1.8-7 1.8-2.5 0-5.3-0.8-7.5-2.2-1.9-1.3-4.1-3.6-5-5.3-0.8-1.7-1.5-3.1-1.5-3.3 0-0.1-8.3 4.5-18.5 10.3-10.2 5.8-19.1 10.5-19.8 10.5-0.6 0-1.7-1-2.3-2.3-0.7-1.2-4.9-8.6-17.9-30.7l-2.8 2c-1.9 1.4-4.2 2.1-7.7 2.1-3.5 0-5.8-0.7-7.8-2.1-1.5-1.1-3.4-3.5-4.3-5.3-1.2-2.2-1.5-4.6-1.1-7.7 0.4-3.1 1.5-5.4 3.4-7.3 1.5-1.5 3.6-3 4.5-3.2 1-0.3 1.8-1 1.8-1.5 0-0.5-3.9-7.6-8.6-15.8-4.9-8.4-8.4-15.6-8.2-16.7 0.2-1.3 3.3-3.8 8.8-7.1 4.7-2.8 24.7-14.6 44.5-26.2 19.8-11.6 36.8-21.1 37.7-21.2zm-48.2 31.8c-21.2 12.3-38.8 22.7-39.2 23.1-0.3 0.3 3.8 8 9.3 17.1 5.4 9.1 9.9 16.8 9.9 17.2 0 0.5-1.6 1.1-3.7 1.5-2.2 0.5-4.7 2.1-6.5 4-1.7 2.1-2.8 4.4-2.8 6.3 0 2.1 1.1 4.1 3.5 6.5 2.8 2.8 4.3 3.5 7.5 3.5 3.1 0 4.7-0.7 7-3 1.6-1.7 3.3-3 3.7-3 0.5 0 4.7 6.8 9.5 15.2 4.8 8.4 9.3 16.1 10 17 1.2 1.6 3 0.7 20.8-9.7 10.7-6.3 19.8-11.5 20.2-11.5 0.5 0 0.8 1.6 0.8 3.5 0 2.4 0.9 4.4 2.7 6.5 1.7 1.8 4.2 3.3 6.3 3.7 2.4 0.4 4.3 0.1 6.2-1 1.6-0.9 3.5-3.2 4.4-5 1.1-2.1 1.4-4.2 0.9-6.2-0.4-1.7-2.2-4.5-4.1-6.3l-3.4-3.2c4.3-2.8 11.6-7.2 19-11.5 7.4-4.3 13.9-8.1 14.3-8.4 0.5-0.3-3.3-7.8-8.4-16.6-5.1-8.8-9.4-16.1-9.6-16.3-0.2-0.1-1.8 0.7-3.6 1.8-1.9 1.2-5 2-7.7 2-2.6 0-5.7-0.8-7.2-1.8-1.5-0.9-3.4-2.6-4.2-3.7-0.7-1.1-1.7-3.6-2.1-5.5-0.3-1.9-0.1-4.8 0.5-6.5 0.6-1.7 2.3-4.2 3.8-5.8 1.5-1.5 3.3-2.7 3.9-2.7 0.7 0 1.5-0.5 1.8-1 0.3-0.6-2.9-7.1-7-14.5-4.1-7.4-8.1-13.5-8.8-13.4-0.6 0-3 1.2-5.2 2.6-2.2 1.5-21.3 12.7-42.5 25.1zm-75.3 52.2c1.3 0 4.2 0.8 6.4 1.7 2.3 1 4.9 3.1 5.9 4.8 1 1.6 2.1 4.7 2.4 6.7 0.3 2.1 1 3.8 1.6 3.8 0.5 0 4.3-0.7 8.2-1.5 4-0.8 8.3-1.7 9.5-2 1.7-0.4 2.3 0 2.3 1.2 0 1.5-2.1 2.2-11.7 4.1-6.5 1.3-12.5 2.5-13.3 2.5-0.9 0.1-1.3-0.4-1.1-1.3 0.2-0.8 0.5-3.1 0.7-5.1 0.2-3-0.3-4.4-3.1-7.5-2.9-3.4-3.9-3.9-7.5-3.9-3.5 0-4.7 0.6-7.6 3.7-2.5 2.8-3.4 4.7-3.4 7.3 0 2.4 0.9 4.5 2.7 6.6 2.4 2.6 2.6 3.2 1.3 4-0.8 0.5-2.2 0.9-3 0.9-0.8 0-9.8 1.6-20 3.6-10.2 1.9-19.2 3.9-20 4.4-1.3 0.8-1 3.1 2 18 2.9 14 3.8 16.9 5 16.4 0.8-0.4 2.8-0.9 4.5-1.2 1.6-0.2 4.7 0.1 6.7 0.7 2.2 0.6 4.9 2.5 6.3 4.3 1.4 1.8 2.8 5.1 3.1 7.3 0.5 2.9 0.1 5.1-1.2 7.9-1.1 2.1-3.3 4.8-4.9 5.9-1.7 1.1-4.7 2.3-6.8 2.6-2 0.3-3.7 1-3.7 1.6 0 0.6 1.4 8 3.1 16.5 1.7 8.5 3.2 15.6 3.3 15.7 0 0.1 8.2-1.3 18.1-3.3 9.9-1.9 18.8-3.7 19.7-3.9 1.4-0.4 1.6-0.9 0.8-2.5-0.6-1.1-1-3.9-1-6.3 0-2.4 0.8-5.5 2-7.5 1.1-1.7 3.5-3.9 5.2-4.9 1.8-0.9 5.3-1.6 7.8-1.5 2.7 0 5.5 0.8 6.9 1.9 1.3 1 3.2 2.9 4.3 4.3 1.1 1.4 2 4.3 2.1 6.8 0.1 2.3 0.4 4.2 0.7 4.2 0.3 0 9.3-1.8 20-4 10.7-2.2 19.6-4.1 19.8-4.3 0.2-0.1-1.1-7.4-2.9-16.2-1.7-8.8-3.3-16.3-3.5-16.8-0.2-0.4-2.1-0.2-4.2 0.4-2.6 0.8-4.8 0.8-7.2 0.1-1.9-0.6-5-2.7-6.8-4.6-2.7-3.1-3.2-4.4-3.2-8.6 0-2.8 0.7-6.4 1.5-8 0.8-1.7 3-3.9 4.7-5 1.8-1.1 4.8-2 6.5-2 2.6 0 3.2-0.4 2.9-1.8-0.3-0.9-0.9-4.3-1.5-7.5-0.6-3.1-0.9-6.1-0.6-6.7 0.3-0.6 0.9-1 1.5-1 0.5 0 1.6 3 2.4 6.7 0.8 3.8 1.8 8.6 3.1 14.6l-4-0.7c-2.9-0.6-4.9-0.3-7.3 0.8-1.7 0.9-3.9 2.9-4.7 4.6-0.8 1.7-1.5 4.3-1.5 6 0 2.1 1.1 4.1 3.5 6.5 2.7 2.7 4.3 3.5 7.2 3.5 2.3 0.1 4.9-0.7 6.5-2 1.6-1.1 3-1.9 3.3-1.8 0.3 0.2 2.3 8.9 4.5 19.3 2.2 10.4 4.1 19.1 4.2 19.3 0.2 0.2 8.3-1.3 18-3.2 9.8-2 18.7-3.6 19.8-3.6 1.7 0 1.9 0.4 1.3 3.2-0.3 1.8-0.6 4.4-0.5 5.8 0.1 1.4 1.7 3.9 3.7 5.7 2.4 2.3 4.5 3.3 6.7 3.3 2 0.1 4.5-0.9 6.2-2.2 1.6-1.3 3.5-3.7 4.2-5.3 0.7-1.7 1-4.1 0.7-5.5-0.3-1.4-1.7-3.7-3.2-5.2-1.4-1.5-2.4-3-2.1-3.2 0.3-0.2 9.9-2.3 21.5-4.5 11.5-2.2 22-4.1 23.2-4.1 1.5 0 2.6 0.8 3.2 2.2 0.5 1.3 2.1 8.4 3.6 15.8 1.4 7.4 2.9 14.4 3.1 15.5 0.4 1.8 1.2 2 6.2 1.7 4.4-0.2 6.4 0.2 8.9 1.7 1.8 1.2 4 3.6 4.9 5.3 0.9 1.8 1.6 5.3 1.5 7.8 0 2.5-0.7 5.5-1.6 6.7-0.8 1.3-3 3.2-4.8 4.3-1.7 1.1-4.2 2-5.5 2-1.2 0-2.4 0.6-2.7 1.2-0.3 0.7 1 8.9 3 18.3 1.9 9.4 3.5 18.5 3.5 20.2 0 1.8-0.1 3.3-0.3 3.3-0.1 0-8.3 1.6-18.2 3.5-9.9 1.9-18.9 3.5-20 3.5-1.7 0-2-0.6-1.8-4.5 0.3-4-0.1-4.9-3.2-8-2.4-2.4-4.4-3.5-6.5-3.5-1.6 0-4.4 0.7-6 1.5-1.8 0.9-3.6 3-4.6 5.2-0.8 2.1-1.3 4.9-1 6.3 0.3 1.4 1.3 3.2 2.1 4 0.9 0.8 1.6 1.7 1.6 2 0 0.3-1.5 0.9-3.3 1.3-1.8 0.4-21.3 4.2-43.3 8.3-22 4.1-40.1 7.4-40.3 7.4-0.1 0 0.2 0.9 0.8 2 0.5 1.1 1 3.6 1 5.5 0 1.9-0.7 5-1.5 6.7-0.9 1.8-2.8 4.2-4.3 5.2-1.5 1.1-4.7 2.2-7.2 2.4-2.8 0.3-5.6-0.1-7.5-1.1-1.7-0.8-3.9-2.5-5-3.7-1.1-1.3-2.5-4.4-4-11.6l-19 3.3c-10.5 1.8-27.3 4.9-37.5 6.9-10.2 1.9-18.8 3.8-19.2 4.2-0.4 0.4-0.2 2.3 0.4 4.2 0.8 2.6 0.8 4.6 0 7.5-0.6 2.4-2.5 5.3-4.6 7.2-3.1 2.9-4.3 3.3-8.9 3.3-3.3 0-6.3-0.7-8.2-1.9-1.7-1-3.8-3.5-4.8-5.5-0.9-2-1.7-5-1.7-6.6 0-1.7-0.5-3-1.3-3-0.6 0-8.6 1.4-17.7 3-9.1 1.7-17.6 3-19 3-2.5 0-2.6-0.3-6.8-22.2-2.4-12.3-4.1-22.4-3.8-22.6 0.3-0.1 1.5 0.2 2.6 0.8 1.1 0.6 3.4 1 5.1 1 2.2 0 4.1-1 6.5-3.5 2.7-2.8 3.4-4.3 3.4-7.5 0-2.8-0.8-4.9-2.5-7-1.4-1.7-3.9-3.3-5.8-3.6-1.7-0.3-4.1-0.3-5.2 0-1.1 0.3-3 1.5-4.3 2.6-1.2 1.1-2.7 1.8-3.2 1.5-0.6-0.3-1-1.3-1-2.3 0-0.9-2.5-14.5-5.5-30.2-3-15.7-5.9-30.9-7.5-39l-5.8 0.6c-4.3 0.5-6.5 0.3-9-1-1.7-0.9-3.9-2.6-4.7-3.9-0.8-1.2-1.9-3.6-2.4-5.2-0.5-1.7-0.6-4.7-0.1-7 0.6-2.6 2.1-5.1 4.4-7.3 2.1-1.9 5.2-3.5 7.6-4 2.2-0.4 4-1 4-1.5 0-0.4-1.6-8.9-3.5-19-1.9-10-3.5-19-3.5-20 0-1.1 1.2-2 3.7-2.7 2.1-0.6 10.1-2.2 17.8-3.7 7.7-1.5 14.1-2.7 14.3-2.8 0.2 0-0.2-1.8-0.9-4-0.6-2.2-0.9-5.7-0.5-7.8 0.4-2.2 1.9-5 3.8-7 2.1-2.1 4.8-3.6 7.3-4.1 3.1-0.6 5.1-0.3 8.7 1.3 3 1.3 5.6 3.3 6.8 5.3 1.1 1.8 2 5 2 7 0 3.6 0.1 3.8 2.7 3.3 1.6-0.3 19.3-3.8 76-15l-0.9-2.5c-0.5-1.4-0.8-4.6-0.6-7.2 0.2-2.6 1.2-5.8 2.3-7.4 1.2-1.5 3.6-3.4 5.5-4.1 1.9-0.7 4.5-1.2 5.7-1.3zm-113 26.8c-1 0.9-2.2 3.3-2.7 5.2-0.5 2.2-0.5 4.4 0.1 6 0.6 1.4 2 3.5 3.2 4.7 1.2 1.3 2 2.5 1.7 2.7-0.3 0.2-9.1 2-19.5 4-10.5 2-19.2 3.6-19.5 3.6-0.3 0 1 7.8 2.8 17.3 1.8 9.4 3.6 19.6 4 22.6l0.7 5.4c-3.9-1.3-6.4-1.6-8-1.5-2 0.1-4.1 1.3-6.3 3.7-2.4 2.6-3.2 4.4-3.2 7.2-0.1 2.3 0.7 4.9 2 6.5 1.1 1.6 3.5 3.3 5.2 3.8 1.8 0.6 4.4 0.8 5.8 0.5 1.4-0.3 3.4-1.4 4.5-2.5 1.1-1.1 2.3-2.1 2.7-2 0.5 0 1 0.8 1.3 1.7 0.3 1 1.6 8.1 3 15.8 1.4 7.7 2.8 14.8 3 15.7 0.3 1.1 1.4 1.8 2.7 1.8 1.3 0 22.5-4.1 47.3-9 24.7-5 45.2-9.3 45.5-9.6 0.3-0.3-1.2-9.2-3.3-19.7-2.1-10.6-3.8-19.5-3.7-20 0-0.4 0.9-0.3 2 0.3 1.1 0.5 3.6 1 5.6 1 2.8 0 4.4-0.8 7-3.5 2.3-2.4 3.4-4.4 3.4-6.5 0-1.7-0.7-4.4-1.5-6-0.9-1.8-3-3.6-5.3-4.6-2.1-0.9-4.7-1.3-6.2-0.9-1.4 0.4-3.5 1.6-4.8 2.8-1.4 1.4-2.5 1.8-3.1 1.2-0.5-0.6-2.5-9.6-4.5-20-1.9-10.5-3.7-19.1-3.8-19.3-0.2-0.2-8.7 1.3-19.1 3.2-10.3 2-19.6 3.6-20.7 3.6-1.9 0-1.9-0.1-0.4-3.8 1.4-3.4 1.4-4 0-7.5-0.9-2-2.6-4.3-3.9-5.1-1.2-0.8-3.1-1.6-4.2-1.9-1.1-0.3-3.4-0.1-5 0.4-1.7 0.5-3.8 1.7-4.8 2.7zm253.8 73.2c0 0 0.4 1.7 0.9 3.8 0.5 2 0.6 5.5 0.1 7.7-0.4 2.2-1.9 5.2-3.4 6.6-1.4 1.5-4.4 3.1-6.6 3.8-2.4 0.6-5.2 0.7-7 0.2-1.7-0.4-4.3-1.6-5.8-2.7-1.5-1-3.4-3.6-4.2-5.7-0.8-2-1.5-4.8-1.5-6.2 0-2.1-0.4-2.4-2.3-2-1.2 0.3-8.6 1.8-16.3 3.3-7.8 1.5-14.5 2.9-14.8 3.2-0.4 0.3 0.9 8.1 2.8 17.5 2 9.3 3.7 17.1 3.8 17.2 0.2 0.1 2.1-0.3 4.3-0.9 3.4-1 4.7-0.8 8.7 1 3.9 1.8 5.2 3.1 6.9 6.9 1.6 3.5 2 5.8 1.5 8.3-0.3 1.9-1.3 4.5-2.1 5.7-0.8 1.3-3 3.2-4.8 4.3-1.7 1.1-4.4 2-6 2-1.5 0-2.7 0.3-2.7 0.7 0 0.5 1.4 8.6 3.2 18.1 2.6 13.3 3.6 17.2 4.8 17.2 0.8-0.1 9.4-1.6 19-3.4l17.5-3.3c-0.5-7.2 0-10.2 1.2-12.7 1-2.1 3.1-4.6 4.8-5.7 1.8-1.1 4.9-1.9 7.7-1.9 2.8 0 6 0.7 7.8 1.7 1.6 1 3.9 3.4 4.9 5.3 1.1 1.9 2 4.5 2.1 5.7 0 1.3 0.1 2.3 0.2 2.3 0.2 0 7.3-1.4 15.8-3 8.5-1.7 15.6-3 15.7-3 0.2 0 0.3-0.9 0.3-2 0-1.1-1.8-10.4-4-20.8-2.2-10.3-4-19.3-4-20 0-0.8 1.1-1 3.7-0.6 2.6 0.4 4.9 0.1 7-1 1.8-0.9 4-3 4.8-4.6 0.8-1.7 1.5-3.9 1.5-5 0-1.1-0.7-3.4-1.5-5-0.8-1.7-2.5-3.7-3.8-4.5-1.2-0.8-3.8-1.5-5.7-1.5-2-0.1-4.7 0.8-6.3 2-1.5 1.1-3 1.7-3.5 1.4-0.4-0.4-2.3-8.9-4.2-19-3.4-18.1-3.5-18.4-6-18.3-1.4 0.1-9.7 1.6-18.5 3.5-8.8 1.8-16 3.3-16 3.4zm-132.3 13c-0.5 4.1-0.3 4.8 2.7 8 1.7 1.9 3.1 3.6 2.9 3.7-0.2 0-10.3 2.1-22.4 4.5-12.2 2.3-22.4 4.5-22.8 4.8-0.3 0.3 0.9 7.6 2.7 16.2l3.2 15.7c9.8-1 11.7-0.8 14.3 0.7 1.9 1.1 4.2 3.3 5.3 4.9 1.1 1.7 1.8 4.9 1.9 7.5 0 2.8-0.8 5.7-2 7.7-1.1 1.8-3.4 4-5 4.8-1.7 0.8-4.4 1.5-6 1.5-2.2 0-3 0.5-3 1.7 0 1 1.5 9.3 3.3 18.5 1.7 9.1 3.4 16.9 3.7 17.2 0.3 0.4 10.2-1.2 22-3.4 11.8-2.2 22.2-4 23-4 1.2 0 1.4 1.1 1.2 5.3-0.3 4.1 0 5.8 1.7 7.9 1.2 1.6 3.7 3.2 5.6 3.8 2.7 0.8 4.3 0.6 7-0.5 1.9-0.8 4.3-2.7 5.2-4.3 1-1.5 1.7-4.1 1.7-5.7 0-1.6-1-4.5-2.2-6.3-1.2-1.7-1.9-3.4-1.5-3.7 0.5-0.2 10.3-2.1 21.9-4.2 11.7-2.1 21.4-4 21.8-4.3 0.3-0.3-1.4-9.6-3.7-20.7-2.3-11.1-4-20.5-3.7-20.8 0.3-0.3 1.8-0.1 3.5 0.5 2.1 0.7 4 0.7 6.2 0 2-0.6 4.1-2.3 5.3-4.3 1.1-1.7 2-4.4 2-6 0-1.5-0.6-3.9-1.4-5.5-0.7-1.5-2.4-3.3-3.7-4-1.3-0.8-3.8-1.4-5.4-1.4-1.7 0-4.2 1-5.8 2.1-1.5 1.2-3.2 2.1-3.7 2.1-0.6 0-1.5-2.4-2-5.3-0.6-2.8-2.2-11.6-3.8-19.3-1.5-7.8-2.9-14.5-3.2-14.8-0.3-0.4-10.9 1.3-23.5 3.8-12.7 2.5-23.2 4.3-23.5 4.1-0.3-0.3 0.1-1.7 0.8-3.2 0.9-1.7 1.2-4.3 0.8-6.6-0.4-2.4-1.6-4.5-3.6-6.2-2.1-1.7-4.2-2.5-7-2.5-2.9 0-4.8 0.7-7.1 2.7-2.3 2.1-3.2 4-3.7 7.3zm-114.7 35.6c-13.2 2.5-24.1 4.7-24.3 4.7-0.2 0.1 0.8 6.5 2.3 14.2 1.4 7.7 2.8 15.2 3 16.7 0.5 2.5 0.7 2.7 3 1.8 1.4-0.6 4.2-1 6.2-1 2.1 0 5.3 0.9 7 2 1.8 1.1 4 3 4.8 4.2 0.8 1.3 1.8 3.9 2.1 5.8 0.5 2.5 0 4.9-1.5 8.2-1.7 4-2.9 5.2-6.9 6.9-2.6 1.2-5.6 1.9-6.7 1.7-1.9-0.4-1.9 0.1 1.3 17.1 1.8 9.7 3.6 17.9 4 18.3 0.4 0.4 9.9-1.1 21.2-3.3 11.3-2.1 20.7-3.7 21-3.4 0.3 0.3-0.1 2-0.9 3.7-1.1 2.6-1.2 4.1-0.3 7 0.8 2.5 2.3 4.5 4.4 5.8 1.8 1.1 4.3 2 5.5 2 1.3 0 3.6-0.7 5.3-1.5 1.6-0.8 3.7-2.5 4.5-3.8 0.8-1.2 1.5-3.9 1.5-6 0-2.6-0.8-4.6-2.8-6.7-1.5-1.7-2.5-3.3-2.2-3.5 0.3-0.3 8.8-2 19-4 10.2-2 18.6-3.6 18.8-3.8 0.1-0.1-1.6-9.5-3.8-21-2.2-11.4-4-20.9-4-21.2 0-0.3 1.7-0.2 3.7 0.2 2.4 0.4 5 0.1 7.1-0.8 1.9-0.8 3.9-2.3 4.6-3.4 0.7-1.1 1.5-3.1 1.8-4.5 0.4-1.4 0.2-4-0.3-5.8-0.6-2-2.1-4-4.2-5.2-1.7-1.1-4.6-2-6.2-2-1.7-0.1-4.2 0.8-5.8 2-1.5 1.1-3 1.8-3.5 1.6-0.4-0.2-2.1-8.5-3.8-18.5-2.8-15.9-3.4-18.1-5-18-1.1 0-11.8 2-23.9 4.5-12.1 2.4-32.8 6.5-46 9z"/><path fill-rule="evenodd" class="a" d="m186 116c0 1.9-0.2 1.9-3 0.5-1.7-0.8-3.9-1.5-5-1.5-1.6 0-1.9 0.5-1.5 2.5l0.5 2.5c-5.8-2.4-8.8-3-10.5-2.8-2.6 0.3-3 0.7-2.8 3 0.3 2.7 0.2 2.8-2.2 1.3-1.4-0.8-2.9-1.3-3.5-1-0.6 0.3-1.7 2.6-2.5 5.3-0.8 2.6-1.5 7.1-1.5 9.9 0 2.9 0.9 7.7 2 10.5 1.1 2.9 3.3 6.5 4.8 8.1 1.5 1.5 4.2 3.2 6 3.7q3.2 1 3.6 3.3c0.3 1.2 0.7 3.9 1 6l0.6 3.7c-10.5 5.3-15.5 8.8-17.9 11.2-2.4 2.3-5.5 6.1-7 8.3-1.5 2.2-3.3 5.3-4 7-0.7 1.7-1.1 3.9-0.9 5 0.3 1.5 1.3 0.3 3.8-4.5 1.9-3.6 6.2-9.2 9.5-12.6 3.3-3.3 8.4-7.2 11.2-8.7 4.9-2.5 5.5-2.6 7.5-1.1 1.7 1.1 3.3 1.3 5.8 0.8 1.9-0.4 4.4-1.6 5.5-2.7 1.7-1.7 2.8-1.9 7.8-1.4 3.1 0.4 8.1 1.6 10.9 2.7 2.9 1.1 7.5 3.8 10.3 5.9 2.7 2.2 6.2 4.9 7.7 6.1 2.6 1.8 2.8 1.8 2.8 0.2 0-0.9-2-3.5-4.3-5.7-2.3-2.2-6.7-5.3-9.7-6.7-3-1.5-8.2-3.4-11.5-4.3-3.3-0.8-7.7-1.5-9.8-1.5-2.6 0-3.7-0.4-3.7-1.5 0-0.8 1.5-2.1 3.2-2.9 1.8-0.7 4.1-2.2 5-3.2 0.9-1.1 2.4-3.9 3.3-6.4 0.8-2.5 1.5-6.1 1.5-8 0-1.9-0.6-5.8-1.5-8.5-0.8-2.8-1.5-6.7-1.5-8.8 0-2-0.7-5.4-1.6-7.5-0.8-2-2.5-4.7-3.7-6-1.2-1.2-2.8-2.2-3.5-2.2-0.6 0-1.2 0.9-1.2 2zm-8.4 18.2c0.5-1.6 1.2-2.1 2.3-1.7 0.9 0.4 2.9 1.1 4.6 1.6 1.7 0.5 4.6 0.7 10-0.2l-2.8 1.6c-1.5 0.8-2.7 1.7-2.7 2 0 0.3 1.3 0.3 3 0 2.6-0.4 3.1-0.1 3.7 2.3 0.5 1.5 0.7 5.2 0.7 8.2-0.1 3-0.8 7-1.7 8.8-1 1.7-2.9 4-4.5 4.9-2 1.2-4.2 1.5-8.4 1.2-4.5-0.3-5.4-0.1-4.5 0.9 0.7 0.7 2.4 1.5 4 1.7 2.2 0.4 2.7 1 2.7 3.5q0 3-2 4c-1.1 0.6-3.2 0.9-4.7 0.8-2.4-0.3-2.8-0.8-3.5-4.8-0.4-2.5-1-6.1-1.4-8-0.4-2.4-1.9-4.7-5.1-7.5-2.6-2.3-4.3-4.5-3.9-5.3 0.3-0.6 2.2-1.2 4.1-1.2 2.9 0 4-0.6 6-3.5 2-2.8 3.3-3.6 10-4l-3-1.5c-1.7-0.8-3.1-1.4-3.3-1.5-0.2 0 0-1 0.4-2.3zm68.4-97.3c-3.5 1.2-6.6 3.2-8.5 5.4-1.7 1.9-3.6 5.2-4.2 7.3-0.7 2.1-1.3 5-1.3 6.4 0 1.4 0.6 4.3 1.3 6.4 0.6 2.1 2.6 5.5 4.2 7.5 1.7 2 4.3 5.5 5.8 7.8 1.5 2.4 4.6 5.7 6.9 7.3 2.4 1.7 5.9 3.3 7.8 3.7 1.9 0.3 5 0 6.7-0.6 2.2-0.7 3.5-0.8 3.8-0.1 0.3 0.5-1.5 3.6-3.9 6.7-2.4 3.2-5.5 8.2-7 11-1.4 2.9-3.3 7.9-4.1 11-0.8 3.2-1.5 6.8-1.5 8 0 1.3 0.4 2.3 1 2.3 0.6 0 1.4-2.1 1.9-4.8 0.5-2.6 1.9-7.2 3-10.2 1.1-3 3.4-7.4 5.1-9.8l3-4.2c5 4.4 8.3 6 10.5 6.4 2.7 0.5 5.1 0.3 7.5-0.7 1.9-0.8 4.3-2.3 5.2-3.3 0.9-1.1 2.4-3.7 3.3-5.9 1.2-2.8 1.5-5.4 1.1-8.8l-0.6-4.7c10.8 0.1 15.5 0.8 18.5 1.9 2.7 1 6.4 2.5 8.2 3.2 1.8 0.8 3.6 1 4 0.6 0.4-0.5-0.6-1.9-2.2-3.2-1.6-1.3-5.3-3.1-8-4-2.8-0.9-7.7-1.9-11-2.2-4-0.3-8.2 0-12.5 1.1-5.2 1.3-6.8 1.3-7.8 0.3-0.8-0.6-2.5-3.2-3.8-5.7-2-3.6-2.3-4.9-1.5-6.8 0.6-1.2 1.1-4.6 1.1-7.5 0-3.9-0.7-6.5-3-10.5-1.7-2.8-4.2-6-5.8-7.1-1.5-1-4.1-2.5-5.7-3.3-1.6-0.9-5-1.8-7.5-2.1-3.2-0.5-6.1-0.1-10 1.2zm-0.9 3.1c2.4-1.1 5.8-2 7.4-2 1.6 0 4.8 0.5 7 1.1 2.2 0.6 5.5 2.2 7.2 3.5 1.8 1.3 3.2 2.6 3 2.8-0.1 0.3-2.9-0.2-6.2-1-3.3-0.8-9.7-1.5-14.3-1.7-4.5-0.1-8.3-0.3-8.3-0.5-0.1-0.2 1.8-1.2 4.2-2.2zm-7.9 6.2c0.7-0.8 3.8-1.2 8.9-1.2 4.4 0 11.2 0.6 15.1 1.4 4 0.8 8.4 1.9 9.8 2.4q2.5 0.9 3.7 4.8c0.7 2.2 1.1 4 1 4.1-0.1 0.1-3.8-1-8.2-2.4-6.7-2.1-10.1-2.6-32.6-2.8l0.6-2.5c0.4-1.4 1.1-3.1 1.7-3.8zm-1.2 8.5c0.8-0.3 2.7-0.5 4.2-0.6 2.2-0.1 2.7 0.3 2.3 1.6-0.2 1-1.2 4.1-2.2 7-1.6 4.7-1.9 5-3.1 3.2-0.6-1-1.5-3.9-2-6.4-0.5-3.5-0.4-4.5 0.8-4.8zm9.6 8.4c2.6-2.7 4.1-3.6 5.5-3.2 1.3 0.4 1.8 1.2 1.4 2.3-0.4 1.4-0.1 1.6 1.2 0.9 1-0.5 3.8-1.1 10.8-1.6l0.2 4.3c0.3 3.6-0.1 4.4-2.5 5.9-1.5 0.9-4.3 3.2-6.2 5.1-2.8 2.7-3.9 3.2-5.5 2.4-1.1-0.5-3-2.2-4.3-3.8-1.2-1.6-2.3-3.7-2.2-4.7 0-0.9 0.7-1.9 1.5-2.2 0.8-0.3 1.5-1 1.5-1.5q0-1-2 0c-1.1 0.5-2.2 0.8-2.5 0.5-0.3-0.3 1.1-2.2 3.1-4.4zm25.6-1.9q-0.4-2.2 1.2-2.2c1 0 1.6 0.9 1.6 2.5 0 1.5-0.5 2.4-1.3 2.2-0.6-0.2-1.3-1.3-1.5-2.5zm3.8 14.5c0-0.9 0.2-1.7 0.5-1.7 0.3 0 1.6 1.9 3 4.2 1.3 2.4 2.5 5.1 2.5 6 0 1-0.9 2.7-2 3.8-1.1 1.1-3.1 2-4.5 2-1.5 0-2.9-0.8-3.5-2-0.8-1.5-0.4-3 1.5-6.3 1.4-2.3 2.5-5 2.5-6zm11.1 7.3c1.3-0.5 2.8-0.7 3.4-0.6 0.6 0.1 1.1 2.4 1.2 4.9 0.2 2.7-0.4 6-1.2 7.7-0.8 1.7-3 3.9-4.8 5-1.7 1.1-4.4 2-6 2-1.5 0-3.9-0.6-5.5-1.4-1.5-0.7-3.3-2.1-4-3-1-1.3-1-1.9 0-3.1 0.8-1 2.8-1.6 5.1-1.5 3 0 4.5-0.7 6.8-3 1.6-1.7 2.8-3.7 2.7-4.5-0.1-0.9 0.9-2 2.3-2.5zm-228.9 54.9c-2.1 2.2-3.3 2.7-5.2 2.3-1.5-0.3-3.7 0.2-5.2 1.1q-2.8 1.7-2.8 4.2c0 1.8-0.9 2.9-3 4-1.6 0.8-3.3 2.5-3.6 3.7-0.3 1.3-0.3 3.5 0 5 0.4 1.8 0.1 3.3-0.9 4.3-0.8 0.8-1.5 2.5-1.5 3.7 0 1.3 0.9 3.2 2 4.3 1.7 1.7 1.9 2.5 1 4.7q-1 2.8 0 5.3c0.5 1.4 2.2 3 3.8 3.6 1.5 0.6 3.2 2.3 3.7 3.8 0.7 2 1.9 3 4.5 3.5 2.8 0.6 4.1 0.3 6.3-1.3 1.7-1.3 4.2-2.1 6.7-2.1 2.2 0 4 0.3 4 0.7 0 0.5-2.3 2.1-5.1 3.8-2.8 1.7-7.7 5.7-10.8 9-3.2 3.3-7 8.4-8.5 11.2-1.4 2.9-2.6 6-2.6 6.8 0 0.8 0.3 1.3 0.8 1.1 0.4-0.2 2.5-3.4 4.7-7.1 2.2-3.7 7-9.6 10.8-13.1 3.7-3.5 7.7-6.7 9-7 1.2-0.3 3.2-0.1 4.5 0.5 1.2 0.6 3.1 1.1 4.2 1.1 1.1 0 3.3-1.3 5-3 2.8-2.8 3.4-3 8.3-2.4 2.8 0.4 7.7 1.6 10.7 2.7 3.9 1.5 7.5 4 12.5 8.9 3.8 3.7 7.6 6.7 8.3 6.8 0.6 0 1.2-0.4 1.2-1 0-0.6-2.4-3.5-5.3-6.6-3.4-3.6-7.6-6.8-12.2-9-4.4-2.2-9.9-3.9-14.8-4.7-4.9-0.8-7.7-1.7-7.7-2.5 0-0.6 1-1.2 2.3-1.2 1.2 0 3.8-1 5.7-2.3 2.2-1.4 4-3.7 4.9-6.2 1.2-3.6 1.2-4.4-0.3-7.5-1.2-2.6-1.4-4.2-0.7-6 0.6-1.7 0.5-3.5-0.5-5.8-0.8-1.7-2.5-3.8-3.9-4.5-1.7-0.8-2.6-2.2-2.7-4.2-0.2-2.1-0.9-3.1-2.3-3.4-1.1-0.2-3.2-1.7-4.8-3.2-1.5-1.6-3.5-2.9-4.5-2.9-0.9 0-2.4 0.4-3.2 0.9-1 0.7-2.3 0.3-4-1-1.4-1.1-3.3-2-4.3-1.9-1.1 0-3.1 1.3-4.5 2.9zm2.5 18.3c0.3-0.6 0.9-1.2 1.4-1.2 0.5 0 1.1 0.7 1.4 1.5 0.3 0.8 0.5 1.9 0.5 2.5 0 0.6-0.7 1-1.5 1-0.8 0-1.5 0.4-1.5 1 0 0.6 1.2 1 2.7 1 1.6-0.1 3.7 0.9 4.8 2 1.1 1.1 3.1 2.2 4.5 2.5 1.4 0.3 3.5-0.1 4.7-1 1.3-0.8 2.8-1.5 3.3-1.5 0.5 0 1 0.9 1 2 0 1.2 0.7 2 1.7 2 1 0 2.6 0.8 3.6 1.8 1 0.9 1.7 2.6 1.7 3.7 0 1.1-0.8 2.8-1.8 3.8-0.9 1-2.6 1.7-3.7 1.7-1.1 0-3.1-1-6.7-4.5l0.8 4.5c0.4 2.5 0.8 6.1 0.9 8 0 2.7-0.5 3.7-2.5 4.6-1.6 0.8-3.1 0.9-4.3 0.3-0.9-0.5-1.7-1.9-1.7-3.2 0-1.2 1.3-3.4 2.8-4.9 1.5-1.5 2.4-3.1 1.9-3.5-0.4-0.5-1.7 0.2-3 1.3-1.2 1.2-3.1 2.6-4.2 3.1-1.1 0.6-5.5 1-9.8 0.9-6.6-0.1-8.1-0.4-9.3-2.1-0.8-1.1-1.4-3-1.4-4.3 0-1.2 0.9-3.1 2-4.2q2-2 1.8-5.2c-0.3-2.7 0.2-3.5 5.7-6.2l-3.5-0.7c-2.9-0.5-3.2-0.7-1.5-1.3 1.1-0.4 3.5-1.5 5.4-2.4 1.8-0.9 3.6-2.3 3.8-3zm229.3 53.1c-1.9 0.7-4.4 2.6-5.7 4.2-1.2 1.7-2.7 4.2-3.2 5.7-0.6 1.6-1.1 4.4-1.1 6.3 0 1.9 0.7 5.6 1.6 8.2 0.9 2.7 2.9 6.6 4.4 8.8 1.5 2.2 4.4 4.8 6.6 5.9 2.2 1 4.9 1.5 6.1 1.2q2.3-0.6 2.8 0.9c0.3 1-1.6 2.6-6.3 5.2-3.7 2.1-9.2 6.2-12.3 9.3-3 3-6.7 7.5-8.1 10-1.4 2.5-2.9 5.5-3.2 6.7-0.3 1.3-0.3 2.3 0.1 2.3 0.5 0 1.7-1.7 2.8-3.7 1.1-2 3.6-5.8 5.6-8.3 1.9-2.5 5.7-6.3 8.3-8.5l4.8-4c3.7 5 5.5 6.5 6.3 6.5 0.8 0 3.1-2.3 5-5 2.8-4 4.1-5 6.2-5 1.6 0 4.3 1.2 6 2.5 1.8 1.4 3.5 2.5 3.8 2.5 0.3 0 1.4-2.1 2.6-4.8l2-4.7c7.3 1.2 11.9 2.7 14.9 4.2 3 1.5 7.7 5 10.5 7.9 2.7 2.9 5.6 5.3 6.2 5.4 0.7 0 1.3-0.4 1.3-1 0-0.6-2.4-3.5-5.3-6.6-3.4-3.6-7.5-6.7-11.7-8.7-4.6-2.2-9.1-3.4-15.5-4.2l-9-1.1c-2.4-12.4-2.3-13.1-0.5-15.9 1.1-1.7 2-4 2-5.3 0-1.2-0.7-2.4-1.8-2.7-0.9-0.3-2.8-2.9-4.2-5.7-1.4-2.9-3.8-6.1-5.3-7.3-1.8-1.2-4.8-2.1-8-2.3-2.9-0.1-6.8 0.4-8.7 1.1zm0.3 3.5c1.8-0.9 4.9-1.7 6.9-1.8 2.1 0 5.2 0.7 6.8 1.5 2 1 3.7 3.1 5 6.2 1.4 3.3 1.7 5.1 1 5.8-0.6 0.6-1 1.3-1 1.7 0 0.5 1.1 0.2 2.5-0.5 2-0.9 2.8-0.9 3.8 0 0.9 0.9 0.7 2-1.2 5-2.4 3.7-2.4 4-1.2 11.8 1.1 6.6 1.1 8.2-0.1 9.2-0.7 0.6-2 1.2-2.8 1.3-0.8 0.1-2.5 0.2-3.8 0.1-1.3-0.1-2.4-0.9-2.7-2.1-0.3-1.3 0.6-3.3 2.7-5.8 2.3-2.7 2.7-3.8 1.7-4.1-0.8-0.2-1.9 0.3-2.4 1.1-0.6 0.8-2.1 2.2-3.5 3.1-1.4 0.9-3.7 1.7-5.3 1.7-1.6 0-4.1-1.2-6.3-3.3-1.9-1.7-4.4-5-5.5-7.2-1-2.2-1.9-5.1-1.9-6.5 0-1.7 0.8-3 2.5-4 1.4-0.8 2.5-1.8 2.5-2.3 0-0.4-0.4-0.7-0.9-0.7-0.5 0-1.7 0.7-2.5 1.5-1.4 1.3-1.6 1.2-1.6-1.3 0-1.5 0.9-4 2.1-5.6 1.1-1.7 3.5-3.8 5.2-4.8zm26.9 38.8c1.3-0.2 2.9-0.4 3.5-0.5 0.7 0 1.3 0.3 1.3 0.9 0 0.6-0.6 2.1-1.3 3.4-1.1 2.3-1.4 2.3-3.5 1-1.2-0.8-2.2-2.1-2.2-2.9 0-0.8 1-1.7 2.2-1.9zm-18.2 5.1c1.9-0.8 4.1-1.6 4.7-1.6 0.9-0.1 1 0.4 0.3 1.6-0.5 1-1.9 2.9-3 4.3-2 2.5-2 2.5-3.5 0.5-0.9-1.1-1.6-2.3-1.7-2.6-0.1-0.3 1.3-1.3 3.2-2.2zm-129.9-41.6c-1.8 0.5-4.4 2.4-5.8 4.2-2.1 2.7-2.4 3.9-2 7.7 0.4 2.7 1.5 5.4 2.9 6.9 1.3 1.3 3.3 2.7 4.5 3.2 1.5 0.6 2.3 1.7 2.3 3.1 0 1.3 0.2 2.6 0.5 3 0.3 0.5 1.5 0.4 2.7-0.1 1.3-0.5 3.2-1.2 4.3-1.6 1.7-0.5 1.8-0.7 0.5-1.5-0.9-0.5-2.5-0.4-3.8 0.1-1.7 0.7-2.2 0.6-2.2-0.6 0-1 1.3-1.7 3.7-2.1 2.1-0.3 4.8-1.2 6-2 2-1.2 2.4-1.2 3.3 0.1 0.7 1.1 0.6 1.6-0.5 2-0.8 0.3-1.3 0.9-1 1.5 0.3 0.6 1.3 0.7 2.7 0.1 1.3-0.5 3-0.6 3.8-0.1 1.1 0.6 0.7 1-1.8 1.4-2.2 0.4-3.5 1.4-4.2 3.1-0.6 1.4-1.4 2.5-2 2.5-0.6 0-1.2-0.7-1.5-1.5-0.4-1.3-1.2-1.3-6.3 0.1-3.1 0.8-6.1 1.9-6.5 2.2-0.5 0.4-0.6 2.2-0.3 3.9 0.3 1.8 1.2 3.6 1.8 3.9 0.7 0.3 3.9-0.2 7-1 5.1-1.4 5.8-1.9 5.8-4.1 0-1.6 0.6-2.5 1.5-2.5 0.8 0 1.5 0.7 1.5 1.5 0 0.8 0.7 1.5 1.5 1.5 0.8 0 4-0.7 7-1.5 3-0.8 5.5-1.8 5.5-2.3 0-0.4 1.1-1.3 2.5-2 1.4-0.6 3.4-1.2 4.5-1.2 1.2 0 2 0.7 2 1.7 0 1-0.6 2.7-1.5 3.8-0.8 1.1-1.5 3.9-1.5 6.2 0 2.4 0.6 6.5 1.2 9.2 1.2 4.6 1.1 5.2-0.7 7.1-1.2 1.3-3.2 2.1-5.3 2-2.4 0-3.5-0.6-4.5-2.5-1.1-2.3-0.9-2.8 2-5.8 1.8-1.7 3.3-3.8 3.3-4.5 0-0.6-0.3-1.2-0.8-1.2-0.4 0.1-2.4 1.6-4.5 3.5-2.7 2.6-4.6 3.5-7.2 3.5-2.4 0-4.5-0.9-6.6-2.8-1.8-1.5-3.8-4.1-4.6-5.7q-1.5-3-2.5-2-1 1 0.5 4c0.8 1.6 2.6 4 3.9 5.2 1.2 1.2 3.5 2.6 5 3.2 1.6 0.6 4.1 1.1 5.8 1.1q3 0 3 1.5c0 0.8-1.2 2-2.8 2.6-1.5 0.6-5.4 3-8.7 5.3-3.3 2.4-8.1 6.7-10.7 9.7-2.7 3-5.9 7.5-7.3 10.1-1.4 2.7-2.4 5.6-2.3 6.5 0.2 1.1 1.6-0.4 3.8-4 1.9-3.2 3.9-5.7 4.5-5.7 0.6 0 3.2 0.7 6 1.5 3 0.9 8.9 1.5 14.7 1.5 5.5 0 12.8-0.7 16.5-1.6 3.8-0.9 10.9-3.6 15.8-5.9 4.9-2.4 11.2-6 14-8.1l5-3.8c8.8 9.9 10.9 11.6 11.5 10.9q1.1-1-2.3-5.5c-1.9-2.5-5.8-6.2-8.8-8.2-3-2.1-8.1-4.7-11.4-5.8-3.4-1.2-9.2-2.1-13.3-2.3l-7.2-0.2c-1.5-5.4-2.2-8.8-2.5-11-0.5-2.9-0.1-5.1 1.4-8 1.2-2.5 1.7-4.6 1.2-5.5-0.4-0.8-1.3-4.1-1.9-7.3-0.8-3.6-2.2-6.8-4-8.8-1.5-1.6-4.3-3.5-6.2-4.1-1.9-0.6-5.1-0.8-7-0.4-2.9 0.5-3.9 0.2-6-2-1.4-1.4-3.6-3.2-5-3.9-1.4-0.7-3.9-1.5-5.5-1.8-1.7-0.3-4.5-0.1-6.4 0.4zm22.7 26.3c2-0.6 4.1-1.2 4.6-1.3 0.5-0.1 1.1 0.9 1.2 2.1 0.2 1.3 0.4 2.5 0.4 2.8 0 0.3-2 1.2-4.5 2q-4.5 1.5-5.6 0.5c-0.6-0.6-0.8-1.9-0.4-2.9 0.3-1.1 2.2-2.5 4.3-3.2zm-19.2 5.7c1.6-0.5 4-0.9 5.4-0.8 1.8 0.1 2.6 0.8 2.7 2.4 0.3 1.9-0.4 2.5-4 3.4-2.3 0.5-4.8 0.8-5.5 0.5-0.6-0.3-1.3-1.5-1.4-2.5-0.1-1.3 0.7-2.3 2.8-3zm34.9 26.5c2.5-2.1 4-2.5 9.2-2.6 3.5 0 7.1 0.3 8 0.6 1.5 0.5 1.2 1-1.7 3-1.9 1.4-5.8 3.6-8.5 4.9-2.8 1.3-7.9 2.8-11.5 3.4-4.4 0.7-8.5 0.8-12.8 0.1-3.5-0.6-6-1.4-5.7-2 0.3-0.6 2.9-2.2 5.7-3.6 4.4-2.1 6.1-2.5 9.8-1.9 3.9 0.6 4.9 0.4 7.5-1.9zm18.4 2c1.3-1.4 3.1-2.6 4-2.6 0.9 0.1 3.6 1.1 10.3 4.5l-4.8 3.1c-2.7 1.7-6.5 4-8.4 5.1-1.9 1.1-6.7 3.3-10.5 4.8-3.8 1.5-10.3 3.3-14.3 4.1-3.9 0.8-9.1 1.4-11.5 1.4-2.3 0-6.9-0.5-10.2-1.1-3.3-0.5-6.7-1.4-7.5-1.9-1.2-0.8-0.9-1.5 2-4.5 1.9-2 4.2-4 5-4.5 0.9-0.5 3.7-0.2 7 0.7 3.7 1 8.1 1.4 13.5 1.2 6.7-0.4 9.2-1 15.5-4.1 4.1-2 8.6-4.8 9.9-6.2zm-143.2-40.1c-2.8 0.9-6.4 3.2-9.1 5.7-3.2 3.1-4.8 5.8-6 9.8-1 3.4-1.6 9.1-1.6 15 0 5.2 0.7 12.6 1.5 16.5 0.8 3.9 2.4 8.2 3.5 9.7 1.1 1.6 1.5 2.8 1 2.8-0.6 0-3.6 2.4-6.8 5.3-3.1 3-7.1 7.6-8.9 10.3-1.8 2.7-3.6 6.4-4 8.2-0.5 2-0.4 3.2 0.2 3.2 0.5 0 2.2-2.4 3.7-5.3 1.5-2.8 4.4-7.2 6.5-9.6 2.1-2.4 5.7-5.7 8-7.3 4.3-2.8 4.3-2.8 8-1.1 2.1 0.9 6.9 1.8 10.8 2.1 3.8 0.3 8.2 0.2 9.7-0.2 1.6-0.3 2.8-1 2.8-1.6 0-0.6-4.1-1.1-9.8-1.3-8.2-0.2-10.4-0.7-14-2.7-3-1.8-5-3.9-6.5-7-1.7-3.7-2.2-6.8-2.5-18-0.3-8.1 0-15.2 0.7-17.8 0.6-2.3 2.3-5.6 3.7-7.2 1.4-1.7 4.5-4 6.7-5.2 3.4-1.6 5.6-2 11.4-1.7 5.9 0.3 7.8 0.9 11.5 3.4 2.8 2 5.2 4.9 7.1 8.5 2.3 4.6 2.7 6.8 2.7 13.5 0 4.4 0.7 10.7 1.5 14 0.8 3.3 1.4 7 1.5 8.3 0 1.2-1.4 3.7-3 5.4-1.7 1.8-2.8 3.5-2.5 3.8 0.3 0.3 1.6-0.1 2.8-0.8 2-1.2 3-1 9.2 2.1 3.8 2 8.9 5.2 11.2 7.1 2.4 2 5 3.6 5.8 3.6 0.8 0 1.5-0.4 1.5-1 0-0.6-2.4-3.1-5.3-5.6-2.8-2.5-8-6-11.5-7.7-5.3-2.7-6.3-3.5-5.8-5.2 0.3-1.1-0.1-5.1-0.9-9-0.8-3.9-1.5-10.5-1.5-14.8 0-5.1-0.6-9.5-1.9-12.9-1.2-3.3-3.5-6.7-6-9-2.3-2.1-5.8-4.5-7.9-5.3-2-0.9-5.7-1.8-8.2-2-2.5-0.3-6.6 0.2-9.3 1zm6.2 6.7c-2.3 0.5-4.9 2.5-8.1 6.3-4.5 5.2-4.8 5.8-4.8 11.3 0 3.1 0.8 7.9 1.7 10.7 1 2.8 3.1 6.4 4.8 8.1 1.7 1.9 4.9 3.7 7.5 4.4 2.5 0.6 6 0.9 8 0.5 1.9-0.4 4.5-1.5 5.8-2.4 1.3-0.9 3.1-3.6 3.9-6.1 1.3-3.6 1.5-6.5 1-14.3-0.4-5.3-1.2-10.5-1.8-11.4-0.6-1-2.5-2.8-4.2-4.1-1.8-1.2-4.8-2.6-6.8-3-2-0.5-5.1-0.5-7 0zm-0.4 10.4c0.4-1.2 1.2-1.1 4.2 0.7 2.1 1.1 6 2.3 13.8 3.2l0.3 8c0.2 4.4-0.2 9.2-0.7 10.8-0.6 1.5-2.3 3.5-3.9 4.4-1.6 1-4.6 1.7-7.2 1.7-2.5 0-5.9-0.7-7.5-1.6-1.7-0.8-4.1-3.6-8-10.7l2.6-2.8c1.5-1.5 3.2-3.8 3.8-5.1 0.6-1.2 2.5-2.5 4.1-3 1.7-0.4 3-1 3-1.5 0-0.4-1.1-0.7-2.5-0.7-1.4 0-2.5-0.4-2.5-1 0-0.6 0.2-1.6 0.5-2.4zm105.5 1.4c0 1.1-0.7 2.2-1.5 2.5-0.8 0.3-1.5 0.9-1.5 1.5 0 0.6 0.4 1 0.9 1 0.5 0 1.7-0.7 2.5-1.5 0.9-0.8 1.6-2.4 1.6-3.5 0-1.1-0.5-2-1-2-0.6 0-1 0.9-1 2zm-120 20.2c0 1.3 1.3 4.4 3 7 1.8 2.9 4.7 5.8 7.2 7.2 2.4 1.3 6 2.7 8 3 2.1 0.3 5.9 0 8.4-0.7 2.6-0.6 5.2-1.8 5.8-2.5 0.9-1.1 0.4-1.1-2.4-0.2-1.9 0.5-5.1 1-7 1-1.9 0-5.2-0.5-7.3-1-2-0.6-5.4-2.5-7.4-4.3-2-1.7-4.4-5.1-5.3-7.5-0.9-2.3-1.9-4.2-2.3-4.2-0.4 0-0.7 1-0.7 2.2zm114.5-128.2c0.5 1.6 0.2 2.7-0.7 3.2-0.7 0.4-1 1.1-0.6 1.5 0.4 0.4 1.5 0.1 2.3-0.7 0.9-0.8 1.6-1.7 1.6-2-0.1-0.3-0.8-1.4-1.6-2.5-1.6-1.9-1.6-1.9-1 0.5zm-7.5 8c0 0.5 1 1.5 2.2 2.1 1.3 0.6 2.9 0.8 3.5 0.5 0.7-0.3 1.3-1.1 1.3-1.6 0-0.6-0.8-0.7-1.8-0.4-0.9 0.3-2 0.1-2.5-0.5-0.4-0.6-1.2-1.1-1.7-1.1-0.6 0-1 0.4-1 1zm71.9-82.3c0.4 1.6 1.5 2.9 2.4 3 0.9 0.2 1.7-0.2 1.7-0.7 0-0.6-0.7-1.2-1.5-1.5-0.8-0.3-1.5-1.2-1.5-2 0-0.8-0.4-1.5-0.9-1.5-0.5 0-0.6 1.2-0.2 2.7zm-172.5 98.5c-0.9 0.5-1.7 1.8-1.6 2.8 0.1 1.1 1.2 2.7 2.4 3.5 1.6 1 2.8 1.1 4 0.5 1.2-0.7 1.7-2 1.5-3.6-0.1-1.7-1-3-2.3-3.4-1.2-0.5-3-0.4-4 0.2zm-30.4 6c-0.8 0.7-1.3 2.1-1.2 3.2 0.1 1.2 0.7 2.7 1.4 3.4 0.7 0.7 2.3 1.2 3.5 1.2 1.3 0 2.3-0.5 2.3-1 0-0.6-0.8-2.6-1.8-4.5-1-1.9-2.1-3.5-2.3-3.5-0.3 0-1.1 0.5-1.9 1.2zm15.6 0.3c-0.3 0.8-1.3 1.5-2.1 1.5-0.8 0-1.5 0.4-1.5 1 0 0.5 0.4 1 1 1 0.5 0 1.9-0.5 3-1 1.1-0.6 2-1.7 2-2.5 0-0.8-0.4-1.5-0.9-1.5-0.5 0-1.2 0.7-1.5 1.5zm235.4 59.5c0 1.1-0.8 2.4-1.8 3-1.4 0.8-1.4 0.9-0.2 1 0.9 0 2.1-0.6 2.8-1.3 0.7-0.6 1.2-2 1.2-3 0-0.9-0.5-1.7-1-1.7-0.6 0-1 0.9-1 2zm-210.5 36c-0.3 0.5-0.1 1.9 0.5 3 0.6 1.2 2 2 3.5 2 1.4 0 2.5-0.5 2.5-1 0-0.6-0.9-1-2-1-1.1 0-2.2-0.5-2.5-1-0.3-0.6 0.7-1 2.2-1 1.6 0 2.4-0.4 2-1-0.4-0.6-1.8-1-3.2-1-1.3 0-2.6 0.4-3 1z"/></svg>